<svg width="5218" height="850" viewBox="0 0 5218 850" fill="none" xmlns="http://www.w3.org/2000/svg">
<g clip-path="url(#clip0_207_2)">
<path fill-rule="evenodd" clip-rule="evenodd" d="M773.828 345.373V463.107H819.784C803.492 570.749 745.722 667.586 658.999 732.621C572.276 797.656 463.591 825.647 356.51 810.525C303.271 803.979 251.851 786.863 205.227 760.167C158.602 733.471 117.701 697.726 84.8903 655.001C52.0797 612.277 28.0121 563.423 14.0811 511.267C0.150186 459.112 -3.36731 404.691 3.73236 351.158C16.0673 262.518 57.3151 180.523 120.987 118.071C132.597 117.958 144.104 120.275 154.778 124.876C163.739 128.859 170.948 135.997 175.053 144.953C181.513 166.318 184.145 188.671 182.824 210.965V507.002C180.47 548.525 188.243 589.997 205.464 627.799C224.916 660.658 254.274 686.407 289.266 701.298C328.268 717.204 370.233 724.402 412.265 722.395C465.29 725.294 517.883 711.37 562.635 682.583C594.695 662.017 619.153 631.41 632.244 595.473C643.502 544.799 648.272 492.883 646.436 440.989V211.646C645.025 194.392 646.51 177.022 650.829 160.265C655.252 147.283 664.115 136.308 675.835 129.3C684.499 124.148 694.196 121.009 704.219 120.113C765.655 180.834 806.156 259.78 819.784 345.373H773.828ZM607.239 211.646C607.239 104.12 662.318 102.419 662.318 102.419H684.62C608.731 36.3301 511.752 -0.0400391 411.42 -0.0400391C311.089 -0.0400391 214.11 36.3301 138.22 102.419H232.835C258.769 106.107 282.422 119.354 299.215 139.595C316.007 159.836 324.743 185.631 323.733 211.986V507.683C321.651 544.52 326.818 581.409 338.939 616.23C348.217 634.825 362.655 650.31 380.502 660.805C402.511 672.991 427.373 678.986 452.476 678.159C482.246 678.922 511.631 671.259 537.292 656.041C560.506 641.437 578.771 620.078 589.667 594.792C603.823 550.909 609.669 504.74 606.901 458.684L607.239 211.646Z" fill="#A0C74F"/>
<path fill-rule="evenodd" clip-rule="evenodd" d="M2455.93 561.79C2416.39 595.817 2357.26 614.872 2270.75 614.872H2075.1V294.676H2185.6V530.485H2263.32C2302.78 534.703 2342.36 523.765 2374.15 499.86C2396.69 470.953 2407.12 434.32 2403.21 397.779C2406.01 362.71 2395.64 327.863 2374.15 300.12C2342.51 276.793 2303.29 266.343 2264.33 270.857H2032.53L2075.1 186.47H2270.75C2357.26 186.47 2416.39 203.483 2455.93 238.191C2495.46 272.899 2515.06 326.661 2515.06 400.501C2515.06 474.34 2495.46 528.783 2455.93 563.151V561.79ZM1641.23 614.872H1615.88V185.108H2015.63L1973.05 269.496H1726.38V353.543H1929.13C1947.71 353.543 1980.15 362.73 1980.15 395.737C1980.15 428.743 1961.9 437.931 1929.13 437.931H1726.38V530.485H1929.13C1992.31 530.485 2014.28 554.984 2014.28 606.365V614.872H1641.23ZM1438.48 512.79V293.655L1329.67 585.609C1326.71 593.308 1321.53 599.943 1314.81 604.664C1305.9 610.094 1295.8 613.248 1285.41 613.851H1251.62C1242.26 614.272 1233.02 611.647 1225.26 606.365C1218.71 601.538 1213.67 594.926 1210.73 587.31L1104.63 295.357V514.492C1104.63 578.123 1089.42 616.573 1003.25 616.573H994.806V464.812H1037.38V347.078H995.481V186.81H1130.65C1140.83 186.012 1151.01 188.229 1159.96 193.186C1168.9 198.143 1176.22 205.625 1180.99 214.712L1269.86 470.256L1358.4 214.712C1363.44 205.165 1371.25 197.387 1380.78 192.405C1390.32 187.423 1401.13 185.472 1411.79 186.81H1546.95V616.573H1539.52C1456.05 616.573 1438.14 586.97 1438.14 514.492L1438.48 512.79Z" fill="#5E419D"/>
<path fill-rule="evenodd" clip-rule="evenodd" d="M1020.49 446.437H952.906V521.978H867.414V446.437H791.047V362.05H867.414V293.995H952.568V362.05H1020.15V446.437H1020.49Z" fill="#C5C7C9"/>
<path fill-rule="evenodd" clip-rule="evenodd" d="M3039.16 64.9922H3097.62L3121.61 136.109L3145.26 64.9922H3200.34L3142.9 198.039C3139.55 206.435 3135.48 214.519 3130.73 222.198C3126.82 227.856 3121.44 232.328 3115.19 235.128C3106.34 238.935 3096.75 240.68 3087.14 240.232C3080.72 240.232 3069.91 240.232 3053.35 237.851V203.823H3073.29C3085.79 203.823 3093.56 199.06 3095.93 189.872L3039.16 64.9922Z" fill="#5E419D"/>
<path fill-rule="evenodd" clip-rule="evenodd" d="M3218.93 64.9915H3308.47C3324.2 63.6951 3339.82 68.572 3352.06 78.6025C3357.09 83.724 3360.98 89.8584 3363.49 96.6026C3365.99 103.347 3367.05 110.548 3366.59 117.734C3367.13 125.301 3365.98 132.892 3363.23 139.955C3360.48 147.019 3356.21 153.376 3350.71 158.566C3337.14 169.664 3319.82 175.031 3302.39 173.538H3272.99V237.51H3218.93V64.9915ZM3272.99 138.49H3286.51C3294.22 139.112 3301.93 137.202 3308.47 133.046C3310.45 131.392 3312.02 129.307 3313.08 126.948C3314.13 124.59 3314.64 122.02 3314.56 119.435C3314.67 116.909 3314.25 114.387 3313.32 112.039C3312.39 109.691 3310.96 107.572 3309.15 105.824C3306.28 103.516 3302.97 101.813 3299.43 100.82C3295.89 99.8258 3292.18 99.5606 3288.54 100.04H3273.33L3272.99 138.49Z" fill="#5E419D"/>
<path fill-rule="evenodd" clip-rule="evenodd" d="M3501.42 208.927H3440.6L3431.81 237.51H3377.07L3442.62 64.9922H3501.08L3566.64 237.51H3510.2L3501.42 208.927ZM3489.25 171.838L3470.33 109.568L3451.07 171.838H3489.25Z" fill="#5E419D"/>
<path fill-rule="evenodd" clip-rule="evenodd" d="M3743.7 237.51H3689.97V107.185H3647.73V160.268C3648.24 176.335 3647.11 192.412 3644.35 208.246C3643.37 212.928 3641.42 217.347 3638.62 221.217C3635.83 225.087 3632.26 228.32 3628.14 230.704C3614.99 236.633 3600.6 239.204 3586.23 238.19C3579.54 238.101 3572.87 237.418 3566.3 236.149V202.121H3574.07C3576.96 202.626 3579.92 202.524 3582.77 201.821C3585.62 201.119 3588.3 199.831 3590.63 198.038C3594.27 192.906 3595.95 186.623 3595.36 180.344V66.3525H3744.71L3743.7 237.51Z" fill="#5E419D"/>
<path fill-rule="evenodd" clip-rule="evenodd" d="M3833.25 129.984H3860.96C3881.39 128.579 3901.78 133.443 3919.41 143.935C3925.89 148.922 3931.04 155.448 3934.41 162.93C3937.77 170.412 3939.23 178.616 3938.67 186.809C3938.98 193.918 3937.53 200.992 3934.47 207.403C3931.4 213.814 3926.81 219.363 3921.1 223.559C3906.03 232.927 3888.43 237.328 3870.75 236.149H3779.86V63.6309H3833.25V129.984ZM3833.25 198.038H3860.96C3877.85 198.038 3886.3 191.913 3886.3 179.664C3886.3 169.455 3877.85 164.011 3860.96 164.011H3833.25V198.038Z" fill="#5E419D"/>
<path fill-rule="evenodd" clip-rule="evenodd" d="M4083.64 166.734L4130.95 181.025C4128.27 193.305 4123.09 204.891 4115.74 215.052C4109.02 223.705 4100.33 230.593 4090.4 235.128C4078.12 239.873 4065.02 242.072 4051.87 241.594C4036.03 242.345 4020.22 239.556 4005.58 233.427C3992.64 227.198 3981.83 217.252 3974.49 204.844C3965.12 188.919 3960.55 170.597 3961.31 152.102C3960.55 140.161 3962.2 128.189 3966.15 116.903C3970.09 105.618 3976.27 95.2528 3984.29 86.4294C3993.07 78.3639 4003.36 72.1587 4014.56 68.1835C4025.77 64.2083 4037.65 62.5445 4049.51 63.2909C4067.69 62.2557 4085.74 66.8897 4101.21 76.5615C4114.71 86.606 4124.56 100.83 4129.26 117.054L4081.61 127.602C4080.51 123.511 4078.8 119.611 4076.54 116.033C4073.67 111.972 4069.84 108.697 4065.39 106.505C4060.86 104.295 4055.9 103.133 4050.86 103.103C4045.3 103.001 4039.8 104.283 4034.85 106.835C4029.9 109.388 4025.65 113.131 4022.48 117.734C4017 128.187 4014.54 139.975 4015.38 151.762C4014.09 165.523 4017.16 179.343 4024.17 191.233C4027.19 194.792 4030.99 197.597 4035.27 199.427C4039.55 201.258 4044.19 202.064 4048.83 201.782C4053.09 202.011 4057.34 201.376 4061.35 199.914C4065.36 198.453 4069.03 196.195 4072.15 193.275C4078.14 186.063 4082.11 177.369 4083.64 168.095V166.734Z" fill="#5E419D"/>
<path fill-rule="evenodd" clip-rule="evenodd" d="M4315.11 237.51H4254.62L4232.66 192.935C4229.72 185.869 4225.86 179.231 4221.17 173.199C4217.99 170.417 4213.88 168.957 4209.68 169.116V237.17H4155.95V64.652H4209.68V129.984C4211.72 130.065 4213.76 129.679 4215.63 128.854C4217.5 128.028 4219.16 126.786 4220.49 125.22C4225.65 117.053 4229.74 108.246 4232.66 99.0193C4235.29 90.5601 4239.53 82.7003 4245.16 75.8811C4250.46 70.2981 4257.49 66.698 4265.1 65.6728C4279.49 63.2132 4294.09 62.1873 4308.69 62.6102V99.0193H4305.98C4298.75 98.447 4291.52 100.237 4285.37 104.123C4280.41 108.793 4276.69 114.643 4274.56 121.137C4272.46 127.271 4269.37 133.018 4265.43 138.151C4261.85 142.408 4257.18 145.588 4251.92 147.338C4259.71 149.904 4266.7 154.479 4272.19 160.609C4279.69 169.207 4285.95 178.83 4290.78 189.192L4315.11 237.51Z" fill="#5E419D"/>
<path fill-rule="evenodd" clip-rule="evenodd" d="M4502.98 64.9922V237.51H4452.3V142.574L4387.08 237.51H4334.03V64.9922H4384.71V160.269L4450.27 64.9922H4502.98Z" fill="#5E419D"/>
<path fill-rule="evenodd" clip-rule="evenodd" d="M4705.73 64.992V237.51H4655.04V142.574L4589.83 237.51H4536.77V64.992H4587.8V160.268L4653.01 64.992H4705.73ZM4666.19 22.458C4664.55 31.9768 4659.35 40.501 4651.66 46.2772C4643.5 52.4785 4633.5 55.7165 4623.28 55.4645C4613.06 55.7165 4603.05 52.4785 4594.89 46.2772C4591.03 43.4667 4587.76 39.9154 4585.27 35.8278C4582.78 31.7401 4581.11 27.1964 4580.36 22.458H4600.98C4602.37 27.0941 4605.32 31.0947 4609.34 33.7668C4613.35 36.4388 4618.16 37.6143 4622.94 37.0897C4627.77 37.6308 4632.63 36.4677 4636.7 33.7989C4640.76 31.1302 4643.79 27.1213 4645.24 22.458H4666.19Z" fill="#5E419D"/>
<path fill-rule="evenodd" clip-rule="evenodd" d="M3054.7 352.522H3125.33L3152.7 457.326L3179.73 352.522H3250.69V525.04H3206.76V393.355L3172.97 525.04H3133.1L3099.31 393.355V525.04H3055.04L3054.7 352.522Z" fill="#5E419D"/>
<path fill-rule="evenodd" clip-rule="evenodd" d="M3286.51 352.522H3430.8V389.272H3340.57V416.834H3421.67V450.861H3337.87V484.888H3430.8V524.02H3286.51V352.522Z" fill="#5E419D"/>
<path fill-rule="evenodd" clip-rule="evenodd" d="M3643.34 562.47H3600.09V525.04H3489.25V562.47H3446V485.229H3463.91C3474.34 454.937 3479.37 423.028 3478.78 390.973V352.522H3624.42V485.229H3643.34V562.47ZM3570.69 485.229V394.716H3527.44V397.098C3526.65 426.839 3522.57 456.398 3515.27 485.229H3570.69Z" fill="#5E419D"/>
<path fill-rule="evenodd" clip-rule="evenodd" d="M3831.22 352.522V525.04H3780.53V430.104L3715.32 525.04H3664.63V352.522H3715.32V447.799L3780.87 352.522H3831.22Z" fill="#5E419D"/>
<path fill-rule="evenodd" clip-rule="evenodd" d="M4052.55 562.47H4009.64V525.04H3867.38V352.522H3921.1V482.506H3980.24V352.522H4033.97V485.229H4052.55V562.47Z" fill="#5E419D"/>
<path fill-rule="evenodd" clip-rule="evenodd" d="M4243.13 352.522V525.04H4192.44V430.104L4127.23 525.04H4076.54V352.522H4127.23V447.799L4192.78 352.522H4243.13Z" fill="#5E419D"/>
<path fill-rule="evenodd" clip-rule="evenodd" d="M4279.29 352.522H4334.03V412.751H4392.83V352.522H4446.89V525.04H4392.83V456.986H4334.03V525.04H4280.3L4279.29 352.522Z" fill="#5E419D"/>
<path fill-rule="evenodd" clip-rule="evenodd" d="M4597.6 454.263L4644.91 468.554C4642.39 480.887 4637.2 492.506 4629.7 502.582C4622.98 511.235 4614.29 518.123 4604.36 522.658C4592.08 527.403 4578.98 529.602 4565.83 529.123C4550.01 529.672 4534.24 526.89 4519.54 520.956C4506.6 514.727 4495.79 504.782 4488.45 492.374C4479.08 476.448 4474.5 458.126 4475.27 439.631C4474.48 427.66 4476.14 415.651 4480.15 404.353C4484.16 393.055 4490.44 382.709 4498.59 373.959C4507.26 365.836 4517.49 359.592 4528.65 355.612C4539.81 351.632 4551.66 350.001 4563.47 350.82C4581.65 349.785 4599.7 354.419 4615.17 364.091C4628.67 374.135 4638.52 388.36 4643.22 404.583L4595.57 415.132C4594.51 410.966 4592.68 407.04 4590.16 403.562C4587.59 399.363 4583.83 396.042 4579.35 394.035C4574.82 391.825 4569.86 390.662 4564.82 390.632C4559.32 390.586 4553.88 391.895 4549 394.445C4544.11 396.995 4539.91 400.709 4536.77 405.264C4531 415.614 4528.41 427.457 4529.34 439.291C4528.05 453.053 4531.12 466.873 4538.13 478.763C4541.15 482.322 4544.95 485.126 4549.23 486.957C4553.51 488.787 4558.15 489.593 4562.79 489.311C4567.05 489.601 4571.33 488.994 4575.34 487.529C4579.35 486.065 4583.02 483.775 4586.11 480.804C4592.1 473.592 4596.07 464.899 4597.6 455.624V454.263Z" fill="#5E419D"/>
<path fill-rule="evenodd" clip-rule="evenodd" d="M4829.4 525.04H4768.58L4747.63 480.464C4744.93 473.28 4741.05 466.607 4736.14 460.728C4734.61 459.287 4732.8 458.18 4730.82 457.477C4728.84 456.774 4726.74 456.491 4724.65 456.645V524.699H4671.94V352.181H4725.67V418.194C4727.71 418.301 4729.75 417.926 4731.63 417.099C4733.51 416.272 4735.17 415.016 4736.48 413.43C4741.66 405.226 4745.86 396.43 4748.98 387.229C4751.59 378.726 4755.71 370.771 4761.15 363.751C4766.67 358.544 4773.61 355.11 4781.08 353.883C4795.48 351.423 4810.08 350.397 4824.67 350.82V387.229H4821.97C4814.85 386.731 4807.75 388.517 4801.7 392.333C4796.59 396.808 4792.74 402.559 4790.54 409.007C4788.65 415.335 4785.56 421.23 4781.42 426.361C4777.84 430.618 4773.16 433.798 4767.9 435.548C4775.7 438.114 4782.69 442.689 4788.18 448.819C4795.76 457.358 4802.02 466.993 4806.76 477.401L4829.4 525.04Z" fill="#5E419D"/>
<path fill-rule="evenodd" clip-rule="evenodd" d="M5015.25 352.522V525.04H4964.57V430.104L4899.35 525.04H4848.67V352.522H4899.35V447.799L4964.91 352.522H5015.25Z" fill="#5E419D"/>
<path fill-rule="evenodd" clip-rule="evenodd" d="M5218 352.522V525.04H5167.31V430.104L5102.1 525.04H5051.41V352.522H5102.1V447.799L5167.65 352.522H5218ZM5178.8 309.988C5178.06 314.727 5176.39 319.27 5173.9 323.358C5171.4 327.446 5168.13 330.997 5164.27 333.807C5156.11 340.009 5146.11 343.247 5135.89 342.995C5125.67 343.247 5115.66 340.009 5107.5 333.807C5103.64 330.997 5100.37 327.446 5097.88 323.358C5095.38 319.27 5093.72 314.727 5092.97 309.988H5113.92C5115.18 314.57 5118.01 318.555 5121.9 321.234C5125.8 323.913 5130.52 325.113 5135.21 324.62C5140.14 325.262 5145.13 324.151 5149.32 321.479C5153.52 318.807 5156.66 314.742 5158.19 309.988H5178.8Z" fill="#5E419D"/>
<path fill-rule="evenodd" clip-rule="evenodd" d="M3213.86 812.57H3153.03L3132.08 767.995C3129.24 760.885 3125.36 754.235 3120.6 748.259C3117.42 745.477 3113.31 744.017 3109.11 744.175V812.23H3055.38V640.392H3109.11V706.405C3111.15 706.512 3113.2 706.137 3115.07 705.31C3116.95 704.483 3118.61 703.227 3119.92 701.641C3125.08 693.474 3129.17 684.667 3132.08 675.44C3134.79 666.91 3139.03 658.951 3144.59 651.962C3150.11 646.755 3157.05 643.321 3164.52 642.094C3178.92 639.649 3193.52 638.624 3208.11 639.031V674.42H3205.41C3198.17 673.847 3190.95 675.637 3184.8 679.524C3179.76 684.134 3176.03 690.004 3173.99 696.537C3171.96 702.706 3168.87 708.465 3164.86 713.551C3161.28 717.809 3156.6 720.988 3151.35 722.738C3159.14 725.304 3166.13 729.879 3171.62 736.009C3179.2 744.549 3185.46 754.183 3190.2 764.592L3213.86 812.57Z" fill="#5E419D"/>
<path fill-rule="evenodd" clip-rule="evenodd" d="M3226.36 726.481C3225.61 714.485 3227.32 702.463 3231.39 691.163C3235.46 679.864 3241.8 669.531 3250.02 660.809C3259.04 652.353 3269.7 645.871 3281.33 641.772C3292.96 637.672 3305.31 636.044 3317.6 636.99C3329.82 636.17 3342.08 637.793 3353.68 641.764C3365.28 645.735 3375.98 651.976 3385.18 660.128C3393.3 668.707 3399.58 678.869 3403.65 689.989C3407.72 701.108 3409.48 712.948 3408.83 724.78C3409.55 741.964 3405.95 759.053 3398.36 774.46C3391.73 787.363 3381.36 797.927 3368.62 804.744C3353.65 812.305 3337.03 815.933 3320.3 815.292C3303.61 815.871 3286.99 812.734 3271.64 806.105C3258.53 799.681 3247.6 789.5 3240.22 776.842C3231.77 761.462 3227.68 744.042 3228.39 726.481H3226.36ZM3280.09 726.481C3278.79 739.738 3282.26 753.025 3289.89 763.911C3293.2 767.718 3297.32 770.732 3301.94 772.733C3306.56 774.735 3311.56 775.673 3316.58 775.481C3321.58 775.716 3326.57 774.83 3331.18 772.888C3335.8 770.947 3339.93 767.996 3343.28 764.252C3350.82 752.445 3354.16 738.407 3352.74 724.44C3353.36 712.311 3349.91 700.326 3342.94 690.412C3339.56 686.622 3335.37 683.644 3330.69 681.701C3326.01 679.757 3320.96 678.897 3315.91 679.183C3311.02 679.049 3306.17 679.983 3301.67 681.922C3297.18 683.861 3293.16 686.757 3289.89 690.412C3282.32 701.455 3278.85 714.825 3280.09 728.183V726.481Z" fill="#5E419D"/>
<path fill-rule="evenodd" clip-rule="evenodd" d="M3595.7 812.57H3541.63V682.246H3499.73V735.329C3500.27 751.396 3499.14 767.477 3496.35 783.307C3495.37 788.079 3493.39 792.584 3490.53 796.518C3487.68 800.451 3484.01 803.72 3479.79 806.105C3466.7 811.772 3452.45 814.221 3438.23 813.251C3431.43 813.147 3424.64 812.464 3417.96 811.209V777.182H3426.07C3431.67 777.726 3437.26 776.013 3441.61 772.418C3445.1 767.228 3446.66 760.959 3446 754.724V640.393H3595.7V812.57Z" fill="#5E419D"/>
<path fill-rule="evenodd" clip-rule="evenodd" d="M3791.35 812.57H3737.62V682.246H3695.38V735.329C3695.75 751.393 3694.61 767.456 3692 783.307C3691.02 788.079 3689.04 792.584 3686.18 796.518C3683.33 800.451 3679.66 803.72 3675.44 806.105C3662.35 811.772 3648.1 814.221 3633.88 813.251C3627.08 813.147 3620.29 812.464 3613.61 811.209V777.182H3621.72C3627.32 777.726 3632.91 776.013 3637.26 772.418C3640.75 767.228 3642.31 760.959 3641.65 754.724V640.393H3791.35V812.57Z" fill="#5E419D"/>
<path fill-rule="evenodd" clip-rule="evenodd" d="M3827.16 640.393H3971.45V677.142H3880.89V704.704H3965.03V738.731H3880.89V772.758H3973.82V811.89H3827.16V640.393Z" fill="#5E419D"/>
<path fill-rule="evenodd" clip-rule="evenodd" d="M4185.35 850H4141.76V812.57H4029.91V850H3987V772.758H4004.9C4015.16 742.423 4020.19 710.545 4019.77 678.503V640.393H4165.07V773.099H4184L4185.35 850ZM4112.7 772.758V682.246H4069.45V684.628C4068.66 714.369 4064.58 743.928 4057.28 772.758H4112.7Z" fill="#5E419D"/>
<path fill-rule="evenodd" clip-rule="evenodd" d="M4451.28 812.57H4390.46L4369.51 767.995C4366.81 760.81 4362.93 754.137 4358.02 748.259C4356.47 746.85 4354.65 745.764 4352.68 745.064C4350.71 744.363 4348.62 744.061 4346.53 744.176V812.23H4292.8V744.176C4290.71 744.022 4288.61 744.305 4286.64 745.008C4284.66 745.711 4282.85 746.817 4281.32 748.259C4276.4 754.192 4272.41 760.848 4269.49 767.995L4248.88 812.57H4188.05L4211.71 765.272C4216.54 754.813 4222.8 745.079 4230.29 736.349C4235.74 730.405 4242.6 725.955 4250.23 723.419C4245.11 721.583 4240.56 718.413 4237.05 714.232C4232.91 709.232 4229.81 703.447 4227.93 697.218C4225.89 690.593 4222.02 684.691 4216.77 680.204C4210.72 676.388 4203.62 674.602 4196.5 675.1H4193.8V640.393C4208.39 639.97 4222.99 640.995 4237.39 643.455C4244.86 644.682 4251.8 648.117 4257.32 653.323C4262.63 660.424 4266.74 668.356 4269.49 676.802C4272.71 685.905 4276.78 694.679 4281.65 703.003C4283.05 704.576 4284.77 705.819 4286.7 706.643C4288.63 707.466 4290.71 707.85 4292.8 707.766V640.393H4346.53V706.405C4348.58 706.512 4350.62 706.137 4352.5 705.311C4354.37 704.484 4356.03 703.227 4357.34 701.641C4362.51 693.474 4366.6 684.667 4369.51 675.441C4372.35 666.968 4376.58 659.032 4382.01 651.962C4387.23 646.192 4394.06 642.157 4401.61 640.393C4416.22 638.963 4430.93 638.963 4445.54 640.393V674.42H4442.84C4435.6 673.847 4428.37 675.637 4422.22 679.524C4417.29 684.221 4413.58 690.062 4411.41 696.537C4409.53 702.766 4406.43 708.552 4402.29 713.551C4398.71 717.809 4394.03 720.988 4388.77 722.738C4396.56 725.304 4403.55 729.879 4409.04 736.009C4416.51 744.637 4422.76 754.254 4427.63 764.592L4451.28 812.57Z" fill="#5E419D"/>
<path d="M2785.73 56.8252H2743.49V812.23H2785.73V56.8252Z" fill="#A0C74F"/>
</g>
<defs>
<clipPath id="clip0_207_2">
<rect width="5218" height="850" fill="white"/>
</clipPath>
</defs>
</svg>
