<svg width="2515" height="815" viewBox="0 0 2515 815" fill="none" xmlns="http://www.w3.org/2000/svg">
<path fill-rule="evenodd" clip-rule="evenodd" d="M773.664 345.413V463.147H819.62C803.328 570.789 745.558 667.626 658.835 732.661C572.112 797.696 463.427 825.687 356.346 810.565C303.107 804.019 251.687 786.903 205.063 760.207C158.438 733.511 117.537 697.766 84.7263 655.041C51.9157 612.317 27.848 563.463 13.9171 511.307C-0.0138769 459.152 -3.53137 404.731 3.56829 351.198C15.9033 262.558 57.151 180.563 120.823 118.111C132.433 117.998 143.94 120.315 154.614 124.916C163.575 128.899 170.784 136.038 174.888 144.993C181.349 166.358 183.981 188.711 182.66 211.005V507.042C180.306 548.565 188.079 590.037 205.3 627.839C224.752 660.698 254.11 686.447 289.102 701.338C328.104 717.244 370.069 724.442 412.101 722.435C465.126 725.334 517.719 711.41 562.471 682.623C594.531 662.057 618.989 631.45 632.08 595.513C643.338 544.839 648.108 492.923 646.272 441.029V211.686C644.861 194.432 646.346 177.062 650.665 160.305C655.088 147.323 663.951 136.348 675.67 129.34C684.335 124.188 694.032 121.049 704.055 120.153C765.491 180.874 805.992 259.82 819.62 345.413H773.664ZM607.075 211.686C607.075 104.16 662.154 102.459 662.154 102.459H684.456C608.567 36.3702 511.588 0 411.256 0C310.925 0 213.946 36.3702 138.056 102.459H232.671C258.605 106.147 282.258 119.394 299.05 139.635C315.843 159.876 324.579 185.671 323.569 212.026V507.723C321.487 544.56 326.654 581.449 338.775 616.27C348.053 634.865 362.491 650.35 380.337 660.845C402.347 673.031 427.209 679.026 452.312 678.199C482.082 678.962 511.467 671.299 537.128 656.081C560.342 641.477 578.606 620.118 589.503 594.832C603.659 550.949 609.505 504.78 606.737 458.724L607.075 211.686Z" fill="#A0C74F"/>
<path fill-rule="evenodd" clip-rule="evenodd" d="M2455.76 561.83C2416.23 595.857 2357.09 614.912 2270.59 614.912H2074.94V294.716H2185.44V530.525H2263.15C2302.61 534.743 2342.2 523.805 2373.99 499.9C2396.53 470.993 2406.96 434.36 2403.05 397.819C2405.84 362.751 2395.47 327.903 2373.99 300.16C2342.34 276.833 2303.13 266.383 2264.17 270.897H2032.36L2074.94 186.51H2270.59C2357.09 186.51 2416.23 203.523 2455.76 238.231C2495.3 272.939 2514.9 326.701 2514.9 400.541C2514.9 474.38 2495.3 528.823 2455.76 563.191V561.83ZM1641.06 614.912H1615.72V185.148H2015.47L1972.89 269.536H1726.22V353.583H1928.96C1947.55 353.583 1979.99 362.77 1979.99 395.777C1979.99 428.783 1961.74 437.971 1928.96 437.971H1726.22V530.525H1928.96C1992.15 530.525 2014.11 555.024 2014.11 606.405V614.912H1641.06ZM1438.32 512.83V293.695L1329.51 585.649C1326.55 593.348 1321.37 599.983 1314.64 604.704C1305.73 610.134 1295.64 613.288 1285.24 613.891H1251.45C1242.1 614.312 1232.85 611.687 1225.1 606.405C1218.55 601.578 1213.51 594.966 1210.57 587.35L1104.46 295.397V514.532C1104.46 578.163 1089.26 616.613 1003.09 616.613H994.642V464.852H1037.22V347.118H995.317V186.85H1130.48C1140.66 186.052 1150.85 188.269 1159.8 193.226C1168.74 198.183 1176.05 205.665 1180.83 214.752L1269.7 470.296L1358.23 214.752C1363.28 205.206 1371.09 197.427 1380.62 192.445C1390.15 187.463 1400.96 185.512 1411.62 186.85H1546.79V616.613H1539.35C1455.89 616.613 1437.98 587.01 1437.98 514.532L1438.32 512.83Z" fill="#5E419D"/>
<path fill-rule="evenodd" clip-rule="evenodd" d="M1020.32 446.477H952.741V522.018H867.25V446.477H790.883V362.09H867.25V294.035H952.404V362.09H1019.99V446.477H1020.32Z" fill="#C5C7C9"/>
</svg>
